<svg xmlns="http://www.w3.org/2000/svg" width="11.525" height="18.634" viewBox="0 0 11.525 18.634">
  <g id="burn" transform="translate(-18.46 0)">
    <g id="Group_117" data-name="Group 117" transform="translate(18.46 0)">
      <path id="Path_23" data-name="Path 23" d="M38.933,12.124a8.241,8.241,0,0,0-.718-2.6A10.012,10.012,0,0,0,36.85,7.342c-.156-.191-.314-.375-.4-.459l-.189-.206c-.046-.053-.085-.1-.123-.133l-.056-.057c-.062-.062-.125-.126-.178-.191l-.013-.015c-.026-.028-.053-.056-.084-.088a1.736,1.736,0,0,1-.126-.137l-.016-.019c-.287-.316-.529-.6-.738-.877a5.854,5.854,0,0,1-.563-.868A3.994,3.994,0,0,1,34,3.24a6.442,6.442,0,0,1-.13-1.18A9.957,9.957,0,0,1,33.9.985c.018-.208.038-.391.057-.554a.385.385,0,0,0-.48-.419A4.343,4.343,0,0,0,32.922.2a5.092,5.092,0,0,0-1.145.661,5.41,5.41,0,0,0-1.224,1.309A5.713,5.713,0,0,0,29.694,4.3a6.746,6.746,0,0,0,.05,2.668,8.126,8.126,0,0,0,1.033,2.517,9.1,9.1,0,0,0,.756,1.052c.074.091.276.328.278.331l.081.093c.057.064.1.112.138.162s.07.083.1.12l.006.006c.385.461.657.8.881,1.1.248.329.465.649.666.976a5.524,5.524,0,0,1,.479.96,4.508,4.508,0,0,1,.252,1.12,6.646,6.646,0,0,1,0,1.194c-.035.412-.1.787-.15,1.061-.038.188-.075.361-.108.511a.385.385,0,0,0,.376.47.4.4,0,0,0,.074-.007,4.052,4.052,0,0,0,.527-.14,5.14,5.14,0,0,0,1.179-.565,5.439,5.439,0,0,0,1.32-1.185,5.955,5.955,0,0,0,1.051-2A6.748,6.748,0,0,0,38.933,12.124Z" transform="translate(-27.442 0)" fill="#888c9f"/>
      <path id="Path_24" data-name="Path 24" d="M22.4,57.41a4.567,4.567,0,0,0-.623-.994c-.064-.078-.14-.168-.178-.206l-.089-.1c-.023-.026-.04-.044-.058-.062l-.024-.024c-.028-.028-.056-.057-.08-.085l-.013-.015-.033-.035c-.019-.02-.039-.039-.055-.06l-.013-.015c-.127-.139-.236-.269-.332-.394a2.784,2.784,0,0,1-.259-.4,1.83,1.83,0,0,1-.169-.48A2.961,2.961,0,0,1,20.415,54a4.254,4.254,0,0,1,.012-.426.385.385,0,0,0-.55-.375,2.425,2.425,0,0,0-.417.255,2.47,2.47,0,0,0-.558.6,2.6,2.6,0,0,0-.392.969,3.079,3.079,0,0,0,.022,1.219,3.714,3.714,0,0,0,.473,1.151,4.183,4.183,0,0,0,.342.476c.032.04.1.121.133.157h0l.034.039c.027.031.046.053.065.076s.03.036.043.05l.006.006c.119.142.272.327.4.5.114.151.213.3.3.445a2.491,2.491,0,0,1,.218.437,2.066,2.066,0,0,1,.115.513,3.035,3.035,0,0,1,0,.542c-.01.122-.028.25-.052.392a.385.385,0,0,0,.524.422,2.417,2.417,0,0,0,.392-.2,2.481,2.481,0,0,0,.6-.542,2.719,2.719,0,0,0,.479-.911,3.131,3.131,0,0,0,.112-1.2A3.775,3.775,0,0,0,22.4,57.41Z" transform="translate(-18.46 -42.928)" fill="#888c9f"/>
    </g>
  </g>
</svg>
