<svg id="home" xmlns="http://www.w3.org/2000/svg" width="22.618" height="18" viewBox="0 0 22.618 18">
  <g id="Group_11" data-name="Group 11">
    <path id="Path_3" data-name="Path 3" d="M73.779,120.939l-8.067,6.65a.19.19,0,0,1-.007.042.193.193,0,0,0-.007.042v6.734a.911.911,0,0,0,.9.9h5.387v-5.387h3.592v5.388h5.387a.912.912,0,0,0,.9-.9v-6.734a.2.2,0,0,0-.014-.084Z" transform="translate(-62.47 -117.305)" fill="#a8abb5"/>
    <path id="Path_4" data-name="Path 4" d="M22.462,55.763,19.39,53.209V47.485a.432.432,0,0,0-.449-.449H16.247a.432.432,0,0,0-.449.449v2.736l-3.423-2.862a1.74,1.74,0,0,0-2.132,0L.155,55.763a.408.408,0,0,0-.154.3.454.454,0,0,0,.1.33l.87,1.038a.479.479,0,0,0,.295.154.521.521,0,0,0,.337-.1l9.708-8.1,9.708,8.1a.432.432,0,0,0,.295.1h.042a.479.479,0,0,0,.295-.154l.87-1.038a.454.454,0,0,0,.1-.33A.409.409,0,0,0,22.462,55.763Z" transform="translate(0.001 -46.994)" fill="#a8abb5"/>
  </g>
</svg>
