<svg xmlns="http://www.w3.org/2000/svg" width="18.001" height="18.001" viewBox="0 0 18.001 18.001">
  <g id="info-button" transform="translate(0 0)">
    <g id="Group_100" data-name="Group 100" transform="translate(0 0)">
      <path id="Path_14" data-name="Path 14" d="M15.365,2.636a9,9,0,1,0,0,12.729A9,9,0,0,0,15.365,2.636ZM10.174,12.914a1.174,1.174,0,0,1-2.348,0v-4.7a1.174,1.174,0,1,1,2.348,0Zm-1.195-6.7a1.047,1.047,0,0,1-1.113-1.07A1.046,1.046,0,0,1,8.993,4.056a1.08,1.08,0,1,1-.014,2.155Z" transform="translate(0 0)" fill="#00b8d8"/>
    </g>
  </g>
</svg>
