<svg xmlns="http://www.w3.org/2000/svg" width="14.831" height="12.162" viewBox="0 0 14.831 12.162">
  <g id="thumb-up" transform="translate(0 -8.958)">
    <g id="Group_103" data-name="Group 103" transform="translate(0 8.958)">
      <path id="Path_15" data-name="Path 15" d="M14.4,15.616a1.176,1.176,0,0,0-.782-2.1l-3.424,0c.13-.672.318-1.787.311-1.892a6.515,6.515,0,0,0-.787-2.259,1.524,1.524,0,0,0-1.391-.383c-.821.163-.9.648-.9.782,0,0,.035,1.328.039,1.682a12.2,12.2,0,0,1-2.156,3.061.663.663,0,0,0-.325-.085H.663A.64.64,0,0,0,0,15.044v5.543a.611.611,0,0,0,.623.533H4.509a.6.6,0,0,0,.625-.579v-.184a.479.479,0,0,1,.21.029,1.851,1.851,0,0,0,.961.332h5.8c2.168,0,1.935-1.784,1.737-2.027a1.308,1.308,0,0,0,.284-1.537A1.306,1.306,0,0,0,14.4,15.616ZM4.375,20.54H.622V15.008H4.375Zm9.018-4.972-.035.137c1,.263.467,1.331-.249,1.4l-.035.137c.958.226.5,1.325-.249,1.4l-.035.136c.782.119.593,1.357-.592,1.357l-5.9,0c-.416,0-.8-.44-1.1-.44H4.929V15.439a9.463,9.463,0,0,0,.97-.619A14.894,14.894,0,0,0,8.09,11.512c0-.33-.039-1.758-.039-1.758s.345-.413,1.116-.112a5.959,5.959,0,0,1,.715,2.026S9.59,13.52,9.433,14.1h4.089C14.526,14.1,14.335,15.431,13.393,15.568Z" transform="translate(0 -8.958)" fill="#a8abb5"/>
    </g>
  </g>
</svg>
