<?xml version="1.0" encoding="utf-8"?>
<!-- Generator: Adobe Illustrator 24.2.0, SVG Export Plug-In . SVG Version: 6.00 Build 0)  -->
<svg version="1.1" id="Layer_1" xmlns="http://www.w3.org/2000/svg" xmlns:xlink="http://www.w3.org/1999/xlink" x="0px" y="0px"
	 viewBox="0 0 19.2 18" style="enable-background:new 0 0 19.2 18;" xml:space="preserve">
<style type="text/css">
	.st0{fill:#A8ABB5;}
</style>
<path id="Path_1" class="st0" d="M7.5,7C7.7,6.8,8,6.6,8.2,6.4C9,6,9.8,5.8,10.7,5.8c1.2,0,2.3,0.4,3.2,1.2l4.1,3.8
	c0.8,0.8,1.3,1.8,1.3,3c-0.1,2.4-2.1,4.3-4.5,4.2c-1.2,0-2.3-0.4-3.2-1.2l-3.4-3.1c-0.1-0.1-0.1-0.1-0.1-0.2c0-0.2,0.1-0.3,0.3-0.3
	c0,0,0,0,0,0h0.1c0.7,0,1.4-0.1,2-0.4c0.1,0,0.3,0,0.3,0.1l2.4,2.3c0.8,0.7,1.9,0.7,2.7,0c0.7-0.6,0.8-1.7,0.1-2.4
	c0,0-0.1-0.1-0.1-0.1L12,8.7C11.2,8,10.1,8,9.3,8.7C8.8,9.1,8,9.1,7.5,8.7C7,8.3,7,7.6,7.5,7C7.4,7.1,7.5,7,7.5,7L7.5,7z"/>
<path id="Path_2" class="st0" d="M1.3,1.2c1.8-1.6,4.5-1.6,6.3,0L11,4.4c0.1,0.1,0.1,0.2,0.1,0.3c-0.1,0.1-0.2,0.2-0.3,0.2h-0.1
	c-0.7,0-1.4,0.1-2,0.4c-0.1,0-0.3,0-0.3-0.1L5.8,2.9c-0.8-0.7-1.9-0.7-2.7,0C2.4,3.6,2.4,4.7,3,5.4c0,0,0.1,0.1,0.1,0.1l3,2.8l0,0
	l1,1C8,10,9.2,10,9.9,9.3c0.5-0.4,1.3-0.4,1.8,0c0.5,0.4,0.5,1.1,0.1,1.6c0,0,0,0.1-0.1,0.1c-0.4,0.4-0.8,0.6-1.3,0.8
	c-0.1,0-0.1,0.1-0.2,0.1S10.1,12,10,12s-0.1,0-0.2,0.1l-0.2,0c-0.1,0-0.3,0.1-0.4,0.1c-0.2,0-0.3,0-0.5,0H8.5l-0.2,0
	c-0.1,0-0.1,0-0.2,0H8l-0.2,0l-0.1,0l-0.2,0h0C6.7,11.9,6,11.5,5.4,11L1.3,7.2c-1.6-1.5-1.8-4-0.3-5.7C1.1,1.4,1.2,1.3,1.3,1.2z"/>
</svg>
