<svg xmlns="http://www.w3.org/2000/svg" width="86.679" height="81.27" viewBox="0 0 86.679 81.27"><g transform="translate(0 0)"><g transform="translate(32.103 26.124)"><path d="M1.727,170.166a19.5,19.5,0,0,1,3.395-2.56,21.221,21.221,0,0,1,10.907-2.993,20.839,20.839,0,0,1,14.3,5.553l18.375,17.24a18.378,18.378,0,0,1,5.91,13.381c.007,10.471-9.042,18.965-20.212,18.972a20.8,20.8,0,0,1-14.287-5.525L4.948,200.014a1.312,1.312,0,0,1-.427-.969A1.4,1.4,0,0,1,5.974,197.7h.578a25.74,25.74,0,0,0,9.245-1.679,1.515,1.515,0,0,1,1.575.3l10.907,10.238a9.087,9.087,0,0,0,12.265,0,7.775,7.775,0,0,0,0-11.5L22.1,177.777a9.082,9.082,0,0,0-12.25,0,6.214,6.214,0,0,1-8.119,0,5.131,5.131,0,0,1,0-7.611Z" transform="translate(-0.039 -164.614)" fill="#f0b90b"/></g><g transform="translate(0 0)"><path d="M195.426,5.554a21.192,21.192,0,0,1,28.6,0l15.154,14.193a1.292,1.292,0,0,1,.3,1.49,1.451,1.451,0,0,1-1.358.826h-.534a25.688,25.688,0,0,0-9.231,1.693,1.515,1.515,0,0,1-1.575-.3L215.91,13.273a9.087,9.087,0,0,0-12.265,0,7.775,7.775,0,0,0,0,11.5L217.2,37.46l.116.122L222.05,42a9.082,9.082,0,0,0,12.25,0,6.214,6.214,0,0,1,8.119,0,5.164,5.164,0,0,1,0,7.638,20.117,20.117,0,0,1-5.778,3.792c-.3.135-.607.244-.91.366s-.621.217-.924.325-.621.2-.924.284l-.852.217c-.578.135-1.156.244-1.748.339a21.419,21.419,0,0,1-2.153.19h-1.1l-.867-.095c-.318-.013-.65-.081-1.026-.081h-.491l-1-.135-.462-.081-.838-.163h-.159a20.6,20.6,0,0,1-9.375-4.984l-18.39-17.24A18.133,18.133,0,0,1,195.426,5.554Z" transform="translate(-189.502 0)" fill="#f0b90b"/></g></g></svg>