<svg xmlns="http://www.w3.org/2000/svg" width="15.406" height="19.583" viewBox="0 0 15.406 19.583">
  <path id="multiple-files" d="M66.6,0H57.977a1.374,1.374,0,0,0-1.371,1.371v.647h-.648A1.374,1.374,0,0,0,54.586,3.39v.648h-.647A1.373,1.373,0,0,0,52.568,5.41v12.8a1.371,1.371,0,0,0,1.37,1.371H60a1.606,1.606,0,0,0,1.13-.465l1.57-1.554h1.884a1.372,1.372,0,0,0,1.372-1.371v-.648H66.6a1.371,1.371,0,0,0,1.371-1.371V1.371A1.374,1.374,0,0,0,66.6,0ZM62.853,15.572H61.265a1.371,1.371,0,0,0-1.372,1.372h0V18.5H53.939a.289.289,0,0,1-.288-.288V5.41a.29.29,0,0,1,.288-.289h8.626a.289.289,0,0,1,.288.288V15.572Zm2.018.621a.29.29,0,0,1-.289.288h-.775a.492.492,0,0,0,.129-.366V5.41a1.374,1.374,0,0,0-1.373-1.371H55.67V3.39a.288.288,0,0,1,.287-.288h8.626a.29.29,0,0,1,.289.288Zm2.019-2.019a.29.29,0,0,1-.288.288h-.648V3.39a1.374,1.374,0,0,0-1.372-1.371H57.689V1.371a.288.288,0,0,1,.287-.288H66.6a.289.289,0,0,1,.288.288v12.8Z" transform="translate(-52.568)" fill="#a8abb5"/>
</svg>
