<svg xmlns="http://www.w3.org/2000/svg" width="69.557" height="88.415" viewBox="0 0 69.557 88.415"><path d="M115.931,0H76.987A6.2,6.2,0,0,0,70.8,6.192V9.115H67.872a6.2,6.2,0,0,0-6.191,6.192v2.925H58.759a6.2,6.2,0,0,0-6.191,6.192l0,57.8a6.19,6.19,0,0,0,6.187,6.191h27.36a7.25,7.25,0,0,0,5.1-2.1L98.308,79.3h8.5a6.193,6.193,0,0,0,6.194-6.19V70.183h2.924a6.192,6.192,0,0,0,6.19-6.19l0-57.8A6.2,6.2,0,0,0,115.931,0ZM99,70.306H91.837A6.192,6.192,0,0,0,85.643,76.5V76.5l0,7.02H58.759a1.306,1.306,0,0,1-1.3-1.3v-57.8a1.307,1.307,0,0,1,1.3-1.3l38.944,0a1.3,1.3,0,0,1,1.3,1.3V70.306Zm9.113,2.8a1.308,1.308,0,0,1-1.3,1.3h-3.5a2.224,2.224,0,0,0,.581-1.655V24.425a6.2,6.2,0,0,0-6.2-6.192H66.573V15.306a1.3,1.3,0,0,1,1.3-1.3l38.945,0a1.308,1.308,0,0,1,1.3,1.3Zm9.115-9.116a1.308,1.308,0,0,1-1.3,1.3h-2.924l0-49.986a6.2,6.2,0,0,0-6.2-6.192H75.688V6.191a1.3,1.3,0,0,1,1.3-1.3h38.947a1.306,1.306,0,0,1,1.3,1.3v57.8Z" transform="translate(-52.568)" fill="#f0b90b"/></svg>