<svg xmlns="http://www.w3.org/2000/svg" width="18" height="18" viewBox="0 0 18 18">
  <g id="question" transform="translate(-0.002)">
    <g id="Group_118" data-name="Group 118" transform="translate(0.002)">
      <path id="Path_25" data-name="Path 25" d="M9,0A9.035,9.035,0,0,0,0,9a8.93,8.93,0,0,0,1.261,4.571L.029,17.306a.527.527,0,0,0,.667.667L4.432,16.74A8.93,8.93,0,0,0,9,18,9,9,0,0,0,9,0ZM9,15.856a1.582,1.582,0,1,1,1.582-1.582A1.584,1.584,0,0,1,9,15.856Zm2.223-7.587L10.057,9.437v1.145a1.055,1.055,0,1,1-2.109,0V9.437a2.1,2.1,0,0,1,.618-1.491L9.734,6.777a1.122,1.122,0,0,0,.323-.892,1.1,1.1,0,0,0-1.1-1.1A1.008,1.008,0,0,0,7.947,5.788a1.055,1.055,0,1,1-2.109,0A3.119,3.119,0,0,1,8.954,2.672a3.216,3.216,0,0,1,3.213,3.213A3.2,3.2,0,0,1,11.225,8.268Z" transform="translate(-0.002)" fill="#888c9f"/>
    </g>
  </g>
</svg>
