<svg xmlns="http://www.w3.org/2000/svg" width="23.091" height="19.92" viewBox="0 0 23.091 19.92">
  <g id="speedometer" transform="translate(0 -35.154)">
    <path id="Path_16" data-name="Path 16" d="M92.678,35.154a11.467,11.467,0,0,0-7.005,2.9l3.019,3.019a7.236,7.236,0,0,1,3.986-1.652Z" transform="translate(-81.809)" fill="#888c9f"/>
    <path id="Path_17" data-name="Path 17" d="M5.936,123.741l-3.019-3.019a11.465,11.465,0,0,0-2.906,7.006h4.27A7.236,7.236,0,0,1,5.936,123.741Z" transform="translate(-0.011 -81.709)" fill="#888c9f"/>
    <path id="Path_18" data-name="Path 18" d="M382.266,127.728h4.27a11.465,11.465,0,0,0-2.906-7.006l-3.019,3.019A7.236,7.236,0,0,1,382.266,127.728Z" transform="translate(-363.445 -81.709)" fill="#888c9f"/>
    <path id="Path_19" data-name="Path 19" d="M401.217,306.055a7.2,7.2,0,0,1-.744,2.608c.343.529.629.976.818,1.273a2.032,2.032,0,0,1-.833,2.92l.7.7a.678.678,0,0,0,.958,0,11.48,11.48,0,0,0,3.369-7.5Z" transform="translate(-382.397 -258.683)" fill="#888c9f"/>
    <path id="Path_20" data-name="Path 20" d="M4.271,306.055H0a11.48,11.48,0,0,0,3.369,7.5.678.678,0,0,0,.958,0l2.053-2.053a.678.678,0,0,0,0-.958,7.262,7.262,0,0,1-2.109-4.493Z" transform="translate(0 -258.683)" fill="#888c9f"/>
    <path id="Path_21" data-name="Path 21" d="M278.005,38.057a11.466,11.466,0,0,0-7.005-2.9v4.27a7.236,7.236,0,0,1,3.986,1.652Z" transform="translate(-258.778)" fill="#888c9f"/>
    <path id="Path_22" data-name="Path 22" d="M212.519,244.816a2.126,2.126,0,0,0-3.006,3.006,77.675,77.675,0,0,0,6.776,4.7.676.676,0,0,0,.934-.934A77.685,77.685,0,0,0,212.519,244.816Z" transform="translate(-199.47 -199.612)" fill="#888c9f"/>
  </g>
</svg>
