<svg xmlns="http://www.w3.org/2000/svg" width="17.719" height="18.22" viewBox="0 0 17.719 18.22">
  <g id="telescope" transform="translate(-11.879)">
    <g id="Group_13" data-name="Group 13" transform="translate(11.879 0)">
      <path id="Path_5" data-name="Path 5" d="M110.977,410.875h.21a.526.526,0,0,0,.526-.526V404.21l3.821,6.1a.528.528,0,0,0,.726.166l.179-.112a.528.528,0,0,0,.166-.726l-4.21-6.715a1.582,1.582,0,0,0,.282-.907,1.606,1.606,0,0,0-.286-.914l-2.89.712a1.636,1.636,0,0,0-.013.2,1.6,1.6,0,0,0,.282.907l-4.21,6.715a.528.528,0,0,0,.166.726l.179.112a.528.528,0,0,0,.726-.166l3.819-6.1v6.138A.526.526,0,0,0,110.977,410.875Z" transform="translate(-103.51 -392.655)" fill="#a8abb5"/>
      <path id="Path_6" data-name="Path 6" d="M13.062,228.634c.023,0,2.459-.594,2.459-.594a6.646,6.646,0,0,1-.865-3.541l-2.391.585c-.383.095-.5.962-.261,1.941C12.226,227.946,12.687,228.634,13.062,228.634Z" transform="translate(-11.879 -219.774)" fill="#a8abb5"/>
      <path id="Path_7" data-name="Path 7" d="M177,134.3l-3.254.8a.518.518,0,0,0-.305.238,1.311,1.311,0,0,0-.156.362,2.185,2.185,0,0,0-.065.341,5.228,5.228,0,0,0,.152,1.84,5.288,5.288,0,0,0,.716,1.7,2.309,2.309,0,0,0,.217.272,1.279,1.279,0,0,0,.305.251.583.583,0,0,0,.28.082.386.386,0,0,0,.1-.013l3.107-.76.162-.04a7.156,7.156,0,0,1-1.067-2.45,7.229,7.229,0,0,1-.2-2.583A.179.179,0,0,0,177,134.3Z" transform="translate(-169.793 -131.473)" fill="#a8abb5"/>
      <path id="Path_8" data-name="Path 8" d="M391.667,5.77,390.353.4a.528.528,0,0,0-.511-.4.517.517,0,0,0-.126.015L382.444,1.8a.55.55,0,0,0-.236.126,1.053,1.053,0,0,0-.261.389,2.148,2.148,0,0,0-.109.352,6.1,6.1,0,0,0,.135,2.636A6.015,6.015,0,0,0,383.1,7.732a2.057,2.057,0,0,0,.271.259.5.5,0,0,0,.078.051.91.91,0,0,0,.672.091L391.282,6.4A.522.522,0,0,0,391.667,5.77Z" transform="translate(-373.963 0)" fill="#a8abb5"/>
    </g>
  </g>
</svg>
