<svg xmlns="http://www.w3.org/2000/svg" width="19.875" height="19.876" viewBox="0 0 19.875 19.876">
  <g id="wallet" transform="translate(-0.003 0)">
    <g id="Group_41" data-name="Group 41" transform="translate(0.003 0)">
      <g id="Group_40" data-name="Group 40" transform="translate(0 0)">
        <path id="Path_9" data-name="Path 9" d="M18.975,10.021V7.228a1.8,1.8,0,0,0-1.663-1.792L14.718.9A1.788,1.788,0,0,0,12.265.243L3.372,5.421H1.81A1.809,1.809,0,0,0,0,7.228V18.069A1.809,1.809,0,0,0,1.81,19.876H17.168a1.809,1.809,0,0,0,1.807-1.807V15.275a1.353,1.353,0,0,0,.9-1.272v-2.71A1.353,1.353,0,0,0,18.975,10.021Zm-2.713-4.6H12.325L15.278,3.7Zm-1.433-2.5-4.3,2.5H8.746l5.637-3.282ZM12.72,1.024a.874.874,0,0,1,.671-.09.886.886,0,0,1,.543.42v0L6.951,5.421H5.167Zm5.352,17.045a.9.9,0,0,1-.9.9H1.81a.9.9,0,0,1-.9-.9V7.228a.9.9,0,0,1,.9-.9H17.168a.9.9,0,0,1,.9.9v2.71h-2.71a2.71,2.71,0,1,0,0,5.421h2.71v2.71Zm.9-4.065a.452.452,0,0,1-.452.452H15.361a1.807,1.807,0,1,1,0-3.614h3.162a.452.452,0,0,1,.452.452Z" transform="translate(-0.003 0)" fill="#a8abb5"/>
        <path id="Path_10" data-name="Path 10" d="M342.24,277.341a.9.9,0,1,0,.9.9A.9.9,0,0,0,342.24,277.341Z" transform="translate(-326.882 -265.596)" fill="#a8abb5"/>
      </g>
    </g>
  </g>
</svg>
