<svg xmlns="http://www.w3.org/2000/svg" width="87.282" height="87.283" viewBox="0 0 87.282 87.283"><g transform="translate(0 0)"><path d="M83.317,44.008V31.74a7.918,7.918,0,0,0-7.3-7.871L64.622,3.971a7.851,7.851,0,0,0-10.771-2.9L14.8,23.805H7.938A7.943,7.943,0,0,0,0,31.74V79.348a7.943,7.943,0,0,0,7.935,7.935H75.383a7.943,7.943,0,0,0,7.935-7.935V67.081A5.941,5.941,0,0,0,87.285,61.5v-11.9A5.941,5.941,0,0,0,83.317,44.008ZM71.4,23.805H54.114l12.967-7.55ZM65.111,12.813,46.23,23.805H38.4L63.153,9.393ZM55.848,4.5a3.836,3.836,0,0,1,2.946-.4,3.89,3.89,0,0,1,2.383,1.842l0,.007L30.513,23.805H22.682Zm23.5,74.851a3.973,3.973,0,0,1-3.967,3.967H7.938A3.973,3.973,0,0,1,3.97,79.348V31.74a3.973,3.973,0,0,1,3.967-3.967H75.383A3.972,3.972,0,0,1,79.35,31.74v11.9h-11.9a11.9,11.9,0,1,0,0,23.8h11.9v11.9ZM83.317,61.5a1.985,1.985,0,0,1-1.984,1.984H67.448a7.935,7.935,0,0,1,0-15.869H81.334a1.985,1.985,0,0,1,1.984,1.984Z" transform="translate(-0.003 0)" fill="#f0b90b"/><path d="M345.3,277.341a3.967,3.967,0,1,0,3.967,3.967A3.972,3.972,0,0,0,345.3,277.341Z" transform="translate(-277.859 -225.764)" fill="#f0b90b"/></g></svg>