<svg width="37" height="22" viewBox="0 0 37 22" fill="none" xmlns="http://www.w3.org/2000/svg">
<path d="M4.54133 0.5C3.5485 0.5 2.59633 0.745833 1.89429 1.18342C1.19225 1.621 0.797852 2.21449 0.797852 2.83333V19.1667C0.797852 19.7855 1.19225 20.379 1.89429 20.8166C2.59633 21.2542 3.5485 21.5 4.54133 21.5H30.7457C31.7385 21.5 32.6907 21.2542 33.3927 20.8166C34.0948 20.379 34.4892 19.7855 34.4892 19.1667V16.5067C35.0549 16.3031 35.5254 16.0107 35.8537 15.6587C36.1821 15.3067 36.3569 14.9072 36.3609 14.5V7.5C36.3569 7.0928 36.1821 6.69334 35.8537 6.3413C35.5254 5.98927 35.0549 5.69693 34.4892 5.49333V2.83333C34.4892 2.21449 34.0948 1.621 33.3927 1.18342C32.6907 0.745833 31.7385 0.5 30.7457 0.5H4.54133ZM4.54133 2.83333H30.7457V5.16667H19.5152C18.5224 5.16667 17.5702 5.4125 16.8682 5.85008C16.1662 6.28767 15.7718 6.88116 15.7718 7.5V14.5C15.7718 15.1188 16.1662 15.7123 16.8682 16.1499C17.5702 16.5875 18.5224 16.8333 19.5152 16.8333H30.7457V19.1667H4.54133V2.83333ZM19.5152 7.5H32.6174V14.5H19.5152V7.5ZM25.1305 9.25C24.3858 9.25 23.6717 9.43437 23.1452 9.76256C22.6187 10.0908 22.3229 10.5359 22.3229 11C22.3229 11.4641 22.6187 11.9092 23.1452 12.2374C23.6717 12.5656 24.3858 12.75 25.1305 12.75C25.8751 12.75 26.5892 12.5656 27.1157 12.2374C27.6423 11.9092 27.9381 11.4641 27.9381 11C27.9381 10.5359 27.6423 10.0908 27.1157 9.76256C26.5892 9.43437 25.8751 9.25 25.1305 9.25Z" fill="black"/>
</svg>
